<svg xmlns="http://www.w3.org/2000/svg" viewBox="0 0 1738.92 309.22"><g id="Layer_2" data-name="Layer 2"><g id="Layer_3" data-name="Layer 3"><path d="M323.84,138.15A55.26,55.26,0,0,1,352,130.86a53.51,53.51,0,0,1,30.72,8.68,42.58,42.58,0,0,1,17.07,25,7.08,7.08,0,0,0,2.53,3.7,7,7,0,0,0,4.23,1.42H427.8a6.77,6.77,0,0,0,3-.66,6.93,6.93,0,0,0,3.79-4.65,6.82,6.82,0,0,0,0-3.08A76.71,76.71,0,0,0,418,126.43a78.6,78.6,0,0,0-29.51-21.61,91.67,91.67,0,0,0-35.84-7.17,90.63,90.63,0,1,0,0,181.26,92.8,92.8,0,0,0,35.84-7.1,76.37,76.37,0,0,0,46-56.55,7,7,0,0,0,0-3.08,6.79,6.79,0,0,0-1.37-2.75,6.9,6.9,0,0,0-5.42-2.56H406.32a7,7,0,0,0-6.73,5.12,42.66,42.66,0,0,1-17.1,24.91,53.18,53.18,0,0,1-30.56,8.7,55.12,55.12,0,0,1-28.16-7.27A52.31,52.31,0,0,1,304,218.13a59.75,59.75,0,0,1-7.33-29.75A60.3,60.3,0,0,1,304,158.64,52.83,52.83,0,0,1,323.84,138.15Z"/><path d="M560,105.41a7.07,7.07,0,0,0-2.59-3.11,7,7,0,0,0-3.87-1.16H533.49a7,7,0,0,0-6.45,4.27l-68,160.47a7,7,0,0,0-.53,3.36,6.91,6.91,0,0,0,1.15,3.22,7,7,0,0,0,2.52,2.31,6.86,6.86,0,0,0,3.31.83h22.17a6.92,6.92,0,0,0,3.89-1.17,7,7,0,0,0,2.59-3.13l13.41-32.05h71.68l13.41,32.05a7,7,0,0,0,6.47,4.3h22.17a6.87,6.87,0,0,0,3.32-.83,7.06,7.06,0,0,0,3.66-5.53,6.79,6.79,0,0,0-.53-3.36Zm6,102.2H520.89l22.58-53.76Z"/><path d="M777.92,112a101.82,101.82,0,0,0-47.56-10.83H671.81a7,7,0,0,0-7,7V268.67a7,7,0,0,0,7,7h58.88a101,101,0,0,0,47.38-10.83,79.62,79.62,0,0,0,32.46-31A90.43,90.43,0,0,0,822,188.28a89.31,89.31,0,0,0-11.5-45.41A79.81,79.81,0,0,0,777.92,112Zm8.93,76.8A58.23,58.23,0,0,1,780,217.62a46.16,46.16,0,0,1-19.2,18.46,65.48,65.48,0,0,1-30.72,6.7h-31v-109h30.54a65.38,65.38,0,0,1,30.9,6.86,46.49,46.49,0,0,1,19.32,18.9A59.91,59.91,0,0,1,786.85,188.77Z"/><path d="M996.86,101H976a7,7,0,0,0-7,7v97.29a45.32,45.32,0,0,1-4.73,20.83A35.05,35.05,0,0,1,951,240.45a42.08,42.08,0,0,1-41.19-.17,35.06,35.06,0,0,1-13.18-14.42A46.57,46.57,0,0,1,892,204.92V108a7,7,0,0,0-7-7H864.18a7,7,0,0,0-7,7v98.43a73.78,73.78,0,0,0,9.7,37.92A67.45,67.45,0,0,0,893.52,270a81.61,81.61,0,0,0,74.84-.21,67,67,0,0,0,26.3-25.85,74.35,74.35,0,0,0,9.42-37.48V108a7,7,0,0,0-7.22-6.94Z"/><path d="M1106,138.16a55.15,55.15,0,0,1,28.16-7.3,53.58,53.58,0,0,1,30.71,8.68,42.47,42.47,0,0,1,17.08,25,7,7,0,0,0,6.76,5.12h21.24a7,7,0,0,0,3-.67,6.89,6.89,0,0,0,2.42-1.89,7,7,0,0,0,1.37-2.76,7.11,7.11,0,0,0,0-3.08,76.86,76.86,0,0,0-16.64-34.87,78.64,78.64,0,0,0-29.52-21.61,91.47,91.47,0,0,0-35.83-7.16,90.6,90.6,0,1,0-.08,181.2,92.8,92.8,0,0,0,35.84-7.1,76.45,76.45,0,0,0,46.07-56.55,7,7,0,0,0-1.43-5.83,7.1,7.1,0,0,0-2.42-1.9,7,7,0,0,0-3-.66h-21.37a7,7,0,0,0-6.73,5.12,42.66,42.66,0,0,1-17.1,24.91,53.19,53.19,0,0,1-30.57,8.7,55.11,55.11,0,0,1-28.15-7.27,52.61,52.61,0,0,1-19.82-20.2,59.85,59.85,0,0,1-7.32-29.75,60.46,60.46,0,0,1,7.32-29.75A53,53,0,0,1,1106,138.16Z"/><path d="M1374.73,242.84h-79.87V203h67.58a7,7,0,0,0,7-7V178.09a7,7,0,0,0-7-7h-67.58V134.24h78.8a7,7,0,0,0,7-7v-19a7,7,0,0,0-7-7H1267a7,7,0,0,0-7,7V268.74a7,7,0,0,0,7,7h107.77a7,7,0,0,0,7-7V249.88a7,7,0,0,0-.53-2.69,6.83,6.83,0,0,0-1.51-2.28,7,7,0,0,0-2.27-1.53A6.86,6.86,0,0,0,1374.73,242.84Z"/><path d="M1556.75,101h-20.88a7,7,0,0,0-7,7v97.29a45.33,45.33,0,0,1-4.74,20.83,35.31,35.31,0,0,1-13.21,14.31,42.77,42.77,0,0,1-41.28,0A34.93,34.93,0,0,1,1456.46,226a46.05,46.05,0,0,1-4.68-21V108.15a7,7,0,0,0-7-7H1424a7,7,0,0,0-7,7v98.44a73.94,73.94,0,0,0,9.7,37.91,67.49,67.49,0,0,0,26.62,25.6,81.59,81.59,0,0,0,74.85-.2A67.12,67.12,0,0,0,1554.48,244a74.55,74.55,0,0,0,9.42-37.48V108.13a7.1,7.1,0,0,0-2.07-5.06,7.09,7.09,0,0,0-2.33-1.53A7.18,7.18,0,0,0,1556.75,101Z"/><path d="M1719.56,185.87c-11.34-7.44-26-12.64-43.52-15.36-14.21-1.92-24.75-4.81-31.31-8.57a13.3,13.3,0,0,1-7.68-12.47,16.94,16.94,0,0,1,6.1-13.62c4.27-3.74,12.54-5.71,24-5.71a46.37,46.37,0,0,1,17.45,2.9,21,21,0,0,1,9.55,7.14,17.46,17.46,0,0,1,3.05,10.24,7,7,0,0,0,7,7h21a7,7,0,0,0,7-7,50,50,0,0,0-7.68-27.68,51.21,51.21,0,0,0-22.73-18.63,84.91,84.91,0,0,0-34.31-6.38,86.65,86.65,0,0,0-35.83,6.61,48.61,48.61,0,0,0-22.12,18.71,50.07,50.07,0,0,0-7.12,26.29A41.37,41.37,0,0,0,1613,178.55a60.91,60.91,0,0,0,24.14,15.8,170,170,0,0,0,30.71,7.68c12.49,1.89,22.07,4.81,28.47,8.68a14.52,14.52,0,0,1,7.5,13.67c0,7.68-2.56,12.8-7.91,16.54-6,4.19-15.36,6.32-27.6,6.32a46.51,46.51,0,0,1-19.4-3.74,28.28,28.28,0,0,1-11.77-9.32,20.18,20.18,0,0,1-3.84-11.93,7,7,0,0,0-7-7h-20.89a7,7,0,0,0-7,7,52.85,52.85,0,0,0,8,27.83,57.52,57.52,0,0,0,24,21.22,84.37,84.37,0,0,0,38,7.89,99.19,99.19,0,0,0,36.5-6.17A54.29,54.29,0,0,0,1730,254.07a50.53,50.53,0,0,0,8.88-29.69C1738.55,207,1732.15,194.19,1719.56,185.87Z"/><path d="M113.72,23.62a2.1,2.1,0,0,1-.13.26v0C113.64,23.78,113.68,23.7,113.72,23.62Z"/><path d="M113.59,23.86v0a2.1,2.1,0,0,0,.13-.26C113.68,23.7,113.64,23.78,113.59,23.86Z"/><path d="M232.59,49.25,211.47,25.39a7.8,7.8,0,0,0-4.38-2.53l-.37-.07-36.35-6.93a11.17,11.17,0,0,0-3.32-5A8.3,8.3,0,0,0,163.3,9l-.23,0L117,.17h0a8.46,8.46,0,0,0-3.25,0l-39.87,7c-7.2,1.32-10.73,8.45-10.48,14.82l.77,20.74-31.62-6h0a8.88,8.88,0,0,0-9,4.17l-21,32C-.46,77.28-1.39,84,3.1,89.09L68.52,162.9l4.72,126.2c.2,5.94,3.29,10.3,7.9,11.13h0l46.26,8.81.08,0a9.26,9.26,0,0,0,1.72.15,11.45,11.45,0,0,0,2.18-.21l26.3-4.65c6.33-1.08,10.18-7.77,10.25-13.61l1.49-127.93,63.75-97.21C236.7,60.3,236.45,53.56,232.59,49.25ZM68.75,17.87l41.51,7.9a17.27,17.27,0,0,0-.56,5L111.51,80,83.22,48a7.8,7.8,0,0,0-4.39-2.54l-.39-.08-9.37-1.78-.81-21.88A11.74,11.74,0,0,1,68.75,17.87ZM6.6,75.54l21-32a4,4,0,0,1,3.92-2L70.38,48.9c-.19.24-.37.48-.54.74l-21,32a15.27,15.27,0,0,0-2,4.66L5.3,78.41A10.26,10.26,0,0,1,6.6,75.54Zm65.65,84.1L6.81,85.8a6.9,6.9,0,0,1-1.4-2.33L46.48,91.3a11.91,11.91,0,0,0,3,6.62L110.69,167Zm9.81,135.73c-3.46-.6-3.84-5.47-3.87-6.45l-4.64-124,41.4,7.89,4.68,125.11a15.61,15.61,0,0,0,.88,4.77ZM120.18,15.94a11.93,11.93,0,0,0-7.82,5.19L71.63,13.37a6.8,6.8,0,0,1,3-1.39l39.87-7A3.93,3.93,0,0,1,116,5l31.9,6.08Zm77.91,11.11L170.55,69,171,21l27.61,5.26C198.45,26.53,198.26,26.79,198.09,27.05Z"/><path d="M163.3,9h0l-.23,0Z"/></g></g></svg>